# xmcd
#
# Track frame offsets: 
#        150
#        18826
#        41836
#        55491
#        73386
#        86670
#        100569
#        117969
#        131962
#        145904
#
# Disc length: 2170 seconds
#
# Revision: 1
# Processed by: cddbd v1.5.2PL0 Copyright (c) Steve Scherf et al.
# Submitted via: ExactAudioCopy v0.99pb5
#
DISCID=9208780a
DTITLE=The Sahib Shihab Quintet - Seeds - 200 gr vinyl rip
DYEAR=2008
DGENRE=Jazz
TTITLE0=Seeds
TTITLE1=Peter's Waltz
TTITLE2=Set Up
TTITLE3=Who'll Buy My Dream
TTITLE4=Jay Jay
TTITLE5=Another Samba
TTITLE6=My Kind'a World
TTITLE7=Uma Fita De Tres Cores
TTITLE8=Mauve
TTITLE9=The Wild Man
EXTD=YEAR: 2008
EXTT0=
EXTT1=
EXTT2=
EXTT3=
EXTT4=
EXTT5=
EXTT6=
EXTT7=
EXTT8=
EXTT9=
PLAYORDER=
